<?xml version="1.0" encoding="UTF-8"?>
<svg width="262px" height="90px" viewBox="0 0 262 90" version="1.1" xmlns="http://www.w3.org/2000/svg" xmlns:xlink="http://www.w3.org/1999/xlink">
    <!-- Generator: Sketch 42 (36781) - http://www.bohemiancoding.com/sketch -->
    <title>Untitled</title>
    <desc>Created with Sketch.</desc>
    <defs></defs>
    <g id="Page-1" stroke="none" stroke-width="1" fill="none" fill-rule="evenodd">
        <g id="BEST-CFA" transform="translate(4.000000, 0.000000)">
            <path d="M105.32,26.946 C103.736,26.118 101.505,25.002 98.301,25.002 C92.289,25.002 88.076,29.466 88.076,35.478 C88.076,40.986 91.677,45.738 98.013,45.738 C102.152,45.738 104.493,43.938 105.969,42.822 L105.753,46.998 C104.024,47.862 101.577,49.05 97.329,49.05 C86.853,49.05 83.793,40.77 83.793,35.91 C83.793,28.71 89.841,21.582 99.524,21.582 C102.333,21.582 103.988,22.158 105.32,22.626 L105.32,26.946" id="Fill-1" fill="#1A1918"></path>
            <path d="M111.368,37.638 C111.656,34.434 112.628,32.274 115.328,32.274 C117.92,32.274 119.181,34.218 119.072,37.638 L111.368,37.638 Z M121.017,44.262 C118.893,45.234 117.597,45.738 116.084,45.738 C111.908,45.738 111.584,41.346 111.477,40.05 L121.412,39.834 C121.412,37.782 121.448,36.99 121.196,35.478 C120.656,31.878 118.208,30.006 115.112,30.006 C110.685,30.006 107.553,33.462 107.553,39.726 C107.553,43.974 109.065,48.834 115.076,48.834 C116.841,48.834 118.101,48.402 119.252,48.006 L121.017,44.262 L121.017,44.262 Z" id="Fill-2" fill="#1A1918"></path>
            <path d="M131.637,30.654 C132.393,30.258 133.292,29.79 134.517,29.79 C136.208,29.79 139.269,31.194 139.269,34.722 L139.269,45.594 C139.269,47.106 139.412,47.574 139.952,48.834 L135.128,48.834 C135.704,47.322 135.704,46.638 135.704,45.702 L135.704,35.298 C135.704,34.65 135.057,32.85 132.284,32.85 C130.52,32.85 129.8,33.354 128.937,33.93 L128.937,44.658 C128.937,46.638 129.008,47.25 129.26,48.834 L124.473,48.834 C125.265,47.034 125.408,45.018 125.408,43.074 L125.408,32.958 C125.408,32.454 125.084,30.834 124.904,29.934 L128.973,29.934 L128.937,33.606 L131.637,30.654" id="Fill-3" fill="#1A1918"></path>
            <path d="M153.775,30.402 L153.775,32.778 L148.987,32.778 L148.987,39.546 C148.987,43.794 148.987,44.262 149.168,44.766 C149.384,45.414 150.356,46.314 151.544,46.314 C152.156,46.314 152.695,46.206 153.992,45.918 L151.94,48.546 C150.716,48.798 149.888,48.942 148.844,48.942 C146,48.942 145.244,46.854 145.244,45.846 C145.244,45.054 145.352,44.406 145.352,43.218 L145.352,32.778 L142.903,32.778 C143.443,32.13 144.02,31.554 148.987,26.442 L148.987,30.402 L153.775,30.402" id="Fill-4" fill="#1A1918"></path>
            <path d="M159.356,37.638 C159.644,34.434 160.615,32.274 163.315,32.274 C165.907,32.274 167.168,34.218 167.06,37.638 L159.356,37.638 Z M169.004,44.262 C166.88,45.234 165.584,45.738 164.071,45.738 C159.896,45.738 159.571,41.346 159.464,40.05 L169.399,39.834 C169.399,37.782 169.435,36.99 169.184,35.478 C168.644,31.878 166.195,30.006 163.1,30.006 C158.672,30.006 155.539,33.462 155.539,39.726 C155.539,43.974 157.052,48.834 163.064,48.834 C164.827,48.834 166.088,48.402 167.239,48.006 L169.004,44.262 L169.004,44.262 Z" id="Fill-5" fill="#1A1918"></path>
            <path d="M177.283,29.97 C177.104,30.942 177.104,31.338 177.104,32.562 L177.104,34.866 C178.22,32.706 179.516,30.078 182.611,30.078 C183.403,30.078 183.764,30.258 184.34,30.546 L183.728,35.082 C182.756,34.182 182.252,33.714 180.848,33.714 C178.867,33.714 177.823,34.686 177.104,35.37 L177.104,44.406 C177.104,47.142 177.392,47.754 178.039,48.834 L172.531,48.834 C173.287,47.646 173.468,47.034 173.468,45.234 L173.468,33.246 C173.468,32.562 173.468,31.77 172.856,29.97 L177.283,29.97" id="Fill-6" fill="#1A1918"></path>
            <path d="M207.919,32.814 L203.815,32.814 L203.815,44.262 C203.815,46.854 204.283,47.754 204.823,48.762 L199.062,48.834 C199.927,47.25 200.106,45.954 200.106,43.974 L200.106,32.814 L198.234,32.742 C199.135,31.59 199.387,31.23 200.106,30.078 L200.106,28.962 C200.106,26.982 200.106,21.582 206.299,21.582 C207.667,21.582 208.747,21.834 209.719,22.05 C209.358,23.85 209.251,24.354 208.999,26.082 C208.566,25.182 207.883,24.246 206.263,24.246 C203.815,24.246 203.815,26.838 203.815,27.954 L203.815,30.33 L207.919,30.33 L207.919,32.814" id="Fill-7" fill="#1A1918"></path>
            <path d="M219.015,46.422 C215.559,46.71 211.958,44.046 211.958,38.646 C211.958,34.686 214.082,32.31 216.53,32.31 C219.878,32.31 222.29,35.73 222.29,39.546 C222.29,43.614 220.274,45.414 219.015,46.422 Z M216.494,29.754 C213.398,30.69 208.106,32.31 208.106,40.158 C208.106,46.71 212.822,49.122 216.494,49.122 C218.798,49.122 225.674,46.998 225.674,38.79 C225.674,33.21 221.643,29.574 216.494,29.754 L216.494,29.754 Z" id="Fill-8" fill="#1A1918"></path>
            <path d="M233.594,29.97 C233.414,30.942 233.414,31.338 233.414,32.562 L233.414,34.866 C234.53,32.706 235.826,30.078 238.922,30.078 C239.714,30.078 240.074,30.258 240.65,30.546 L240.038,35.082 C239.065,34.182 238.561,33.714 237.158,33.714 C235.178,33.714 234.134,34.686 233.414,35.37 L233.414,44.406 C233.414,47.142 233.702,47.754 234.35,48.834 L228.842,48.834 C229.598,47.646 229.777,47.034 229.777,45.234 L229.777,33.246 C229.777,32.562 229.777,31.77 229.166,29.97 L233.594,29.97" id="Fill-9" fill="#1A1918"></path>
            <path d="M97.293,62.042 L100.425,69.278 L93.873,69.278 L97.293,62.042 Z M97.581,53.726 L97.364,53.726 L86.961,74.39 C84.728,78.818 83.937,79.79 83.037,80.834 L89.625,80.834 C89.48,78.71 90.524,76.37 90.992,75.362 L92.36,72.446 L101.829,72.446 L103.413,76.082 C104.385,78.278 104.528,79.646 104.528,80.834 L110.937,80.762 C109.929,79.394 108.669,77.666 106.725,73.454 L97.581,53.726 L97.581,53.726 Z" id="Fill-10" fill="#1A1918"></path>
            <path d="M122.492,65.786 C121.7,65.102 120.656,64.13 119,64.13 C117.309,64.13 116.265,65.318 116.265,66.649 C116.265,68.09 117.021,68.594 119.469,70.214 C121.412,71.51 122.708,72.806 122.708,75.434 C122.708,78.638 120.584,80.87 116.553,80.87 C116.084,80.87 114.32,80.87 112.017,80.185 L112.269,75.326 C113.996,77.81 114.897,78.818 116.408,78.818 C118.353,78.818 119.181,77.45 119.181,76.262 C119.181,74.642 118.173,73.994 116.192,72.734 C114.969,71.942 112.593,70.322 112.593,67.298 C112.593,65.21 114.393,62.006 118.893,62.006 C120.368,62.006 121.16,62.294 122.492,62.798 L122.492,65.786" id="Fill-11" fill="#1A1918"></path>
            <path d="M134.876,65.786 C134.084,65.102 133.04,64.13 131.384,64.13 C129.692,64.13 128.648,65.318 128.648,66.649 C128.648,68.09 129.404,68.594 131.853,70.214 C133.796,71.51 135.092,72.806 135.092,75.434 C135.092,78.638 132.968,80.87 128.937,80.87 C128.468,80.87 126.704,80.87 124.4,80.185 L124.652,75.326 C126.38,77.81 127.28,78.818 128.792,78.818 C130.736,78.818 131.565,77.45 131.565,76.262 C131.565,74.642 130.557,73.994 128.576,72.734 C127.353,71.942 124.977,70.322 124.977,67.298 C124.977,65.21 126.776,62.006 131.276,62.006 C132.752,62.006 133.544,62.294 134.876,62.798 L134.876,65.786" id="Fill-12" fill="#1A1918"></path>
            <path d="M141.032,69.638 C141.32,66.434 142.292,64.274 144.992,64.274 C147.584,64.274 148.844,66.218 148.736,69.638 L141.032,69.638 Z M150.68,76.262 C148.556,77.234 147.26,77.738 145.748,77.738 C141.572,77.738 141.248,73.346 141.14,72.05 L151.076,71.834 C151.076,69.782 151.112,68.99 150.86,67.477 C150.32,63.878 147.872,62.006 144.776,62.006 C140.348,62.006 137.216,65.462 137.216,71.726 C137.216,75.974 138.728,80.834 144.74,80.834 C146.504,80.834 147.764,80.402 148.916,80.006 L150.68,76.262 L150.68,76.262 Z" id="Fill-13" fill="#1A1918"></path>
            <path d="M163.388,65.786 C162.596,65.102 161.552,64.13 159.896,64.13 C158.204,64.13 157.16,65.318 157.16,66.649 C157.16,68.09 157.916,68.594 160.364,70.214 C162.308,71.51 163.604,72.806 163.604,75.434 C163.604,78.638 161.48,80.87 157.448,80.87 C156.98,80.87 155.216,80.87 152.912,80.185 L153.164,75.326 C154.892,77.81 155.792,78.818 157.304,78.818 C159.248,78.818 160.076,77.45 160.076,76.262 C160.076,74.642 159.068,73.994 157.088,72.734 C155.864,71.942 153.488,70.322 153.488,67.298 C153.488,65.21 155.288,62.006 159.788,62.006 C161.264,62.006 162.056,62.294 163.388,62.798 L163.388,65.786" id="Fill-14" fill="#1A1918"></path>
            <path d="M175.772,65.786 C174.98,65.102 173.935,64.13 172.279,64.13 C170.588,64.13 169.544,65.318 169.544,66.649 C169.544,68.09 170.3,68.594 172.748,70.214 C174.691,71.51 175.987,72.806 175.987,75.434 C175.987,78.638 173.863,80.87 169.832,80.87 C169.363,80.87 167.6,80.87 165.296,80.185 L165.548,75.326 C167.275,77.81 168.176,78.818 169.688,78.818 C171.632,78.818 172.46,77.45 172.46,76.262 C172.46,74.642 171.452,73.994 169.472,72.734 C168.248,71.942 165.872,70.322 165.872,67.298 C165.872,65.21 167.672,62.006 172.172,62.006 C173.647,62.006 174.44,62.294 175.772,62.798 L175.772,65.786" id="Fill-15" fill="#1A1918"></path>
            <path d="M183.331,61.934 L183.331,66.074 C183.583,65.678 184.663,63.842 184.951,63.482 C186.283,61.862 188.3,61.862 188.516,61.862 C192.079,61.862 192.836,65.065 193.052,66.074 C193.268,65.678 194.239,63.806 194.491,63.446 C195.68,61.97 197.336,61.862 198.128,61.862 C200.863,61.862 201.943,63.698 202.195,64.202 C202.699,65.138 202.699,66.146 202.699,67.082 L202.699,78.026 C202.699,79.142 202.699,79.61 203.275,80.834 L198.596,80.834 C199.136,79.682 199.136,79.538 199.136,78.026 L199.136,67.334 C199.136,65.714 197.659,64.634 196.256,64.634 C194.6,64.634 193.663,65.822 193.052,66.578 L193.052,77.738 C193.052,79.286 193.231,79.898 193.699,80.834 L188.695,80.834 C189.235,79.934 189.415,79.538 189.415,77.738 L189.415,68.414 C189.415,67.298 189.415,66.506 188.947,65.857 C188.407,65.102 187.615,64.634 186.787,64.634 C185.384,64.634 184.411,65.498 183.331,66.542 L183.331,77.702 C183.331,78.926 183.331,79.574 184.123,80.834 L179.012,80.834 C179.588,79.646 179.768,79.214 179.768,77.846 L179.768,65.75 C179.768,63.77 179.407,62.87 179.012,61.934 L183.331,61.934" id="Fill-16" fill="#1A1918"></path>
            <path d="M210.799,69.638 C211.087,66.434 212.059,64.274 214.759,64.274 C217.351,64.274 218.611,66.218 218.503,69.638 L210.799,69.638 Z M220.447,76.262 C218.323,77.234 217.027,77.738 215.515,77.738 C211.339,77.738 211.015,73.346 210.907,72.05 L220.843,71.834 C220.843,69.782 220.879,68.99 220.627,67.477 C220.087,63.878 217.639,62.006 214.543,62.006 C210.115,62.006 206.983,65.462 206.983,71.726 C206.983,75.974 208.495,80.834 214.507,80.834 C216.272,80.834 217.531,80.402 218.683,80.006 L220.447,76.262 L220.447,76.262 Z" id="Fill-17" fill="#1A1918"></path>
            <path d="M231.067,62.654 C231.823,62.258 232.723,61.79 233.947,61.79 C235.639,61.79 238.699,63.194 238.699,66.722 L238.699,77.594 C238.699,79.106 238.843,79.574 239.383,80.834 L234.559,80.834 C235.135,79.322 235.135,78.638 235.135,77.702 L235.135,67.298 C235.135,66.649 234.487,64.85 231.715,64.85 C229.951,64.85 229.23,65.353 228.367,65.93 L228.367,76.658 C228.367,78.638 228.439,79.25 228.691,80.834 L223.903,80.834 C224.695,79.034 224.839,77.018 224.839,75.074 L224.839,64.958 C224.839,64.454 224.515,62.834 224.335,61.934 L228.403,61.934 L228.367,65.606 L231.067,62.654" id="Fill-18" fill="#1A1918"></path>
            <path d="M253.206,62.402 L253.206,64.778 L248.418,64.778 L248.418,71.546 C248.418,75.794 248.418,76.262 248.599,76.766 C248.815,77.414 249.786,78.315 250.975,78.315 C251.587,78.315 252.127,78.206 253.423,77.918 L251.37,80.546 C250.147,80.798 249.318,80.942 248.274,80.942 C245.431,80.942 244.675,78.853 244.675,77.846 C244.675,77.054 244.782,76.406 244.782,75.218 L244.782,64.778 L242.334,64.778 C242.874,64.13 243.45,63.554 248.418,58.442 L248.418,62.402 L253.206,62.402" id="Fill-19" fill="#1A1918"></path>
            <path d="M58.128,32.718 C52.467,20.576 38.036,15.323 25.896,20.984 C13.755,26.646 8.503,41.077 14.164,53.218 C19.825,65.357 34.257,70.61 46.397,64.949 C58.537,59.288 63.789,44.857 58.128,32.718 Z M69.708,55.181 C76.454,36.647 66.897,16.151 48.362,9.405 C29.828,2.661 9.333,12.215 2.587,30.75 C-4.159,49.285 5.397,69.781 23.932,76.527 C42.467,83.273 62.962,73.717 69.708,55.181 Z" id="Stroke-20" stroke="#000000" stroke-width="7"></path>
            <path d="M68.15,27.112 C64.219,19.173 57.345,12.675 48.362,9.405" id="Stroke-21" stroke="#000000" stroke-width="6.3"></path>
            <path d="M69.098,21.844 L44.876,33.139 C30.769,39.717 24.642,56.549 31.219,70.655 C37.798,84.762 54.63,90.89 68.736,84.31 C82.844,77.731 88.97,60.9 82.392,46.793 L70.459,21.209 L69.098,21.844 Z" id="Fill-22" fill="#009C49"></path>
            <path d="M69.098,21.844 L44.876,33.139 C30.769,39.717 24.642,56.549 31.219,70.655 C37.798,84.762 54.63,90.89 68.736,84.31 C82.844,77.731 88.97,60.9 82.392,46.793 L70.459,21.209 L69.098,21.844 Z" id="Stroke-23" stroke="#FFFFFF" stroke-width="5.25"></path>
            <path d="M70.682,20.626 L46.624,86.717" id="Fill-24" fill="#009C49"></path>
            <path d="M70.682,20.626 L46.624,86.717" id="Stroke-25" stroke="#FFFFFF" stroke-width="5"></path>
            <polyline id="Stroke-26" stroke="#FFFFFF" stroke-width="5" points="33.473 37.791 51.021 75.423 83.44 60.301"></polyline>
            <polyline id="Stroke-27" stroke="#FFFFFF" stroke-width="5" stroke-linejoin="round" points="50.701 32.254 59.705 51.562 78.539 42.776"></polyline>
        </g>
    </g>
</svg>